<svg width="24" height="24" viewBox="0 0 24 24" fill="none" xmlns="http://www.w3.org/2000/svg">
<path d="M14.895 6.20702C15.1596 6.07144 15.4527 6.00073 15.75 6.00073C16.0473 6.00073 16.3404 6.07144 16.605 6.20702L19.98 7.93952C20.607 8.26052 21 8.90402 21 9.60752V14.391C21 15.0945 20.607 15.738 19.98 16.059L16.605 17.7915C16.3404 17.9271 16.0473 17.9978 15.75 17.9978C15.4527 17.9978 15.1596 17.9271 14.895 17.7915L11.52 16.059C11.213 15.9017 10.9553 15.6628 10.7754 15.3685C10.5954 15.0742 10.5001 14.736 10.5 14.391V9.60602C10.5 8.90402 10.893 8.26052 11.52 7.93952L14.895 6.20702ZM12.828 10.1625C12.7389 10.3403 12.7241 10.5463 12.7868 10.735C12.8495 10.9238 12.9847 11.0799 13.1625 11.169L15 12.087V14.2485C15 14.4474 15.079 14.6382 15.2197 14.7789C15.3603 14.9195 15.5511 14.9985 15.75 14.9985C15.9489 14.9985 16.1397 14.9195 16.2803 14.7789C16.421 14.6382 16.5 14.4474 16.5 14.2485V12.087L18.336 11.169C18.4248 11.1254 18.5041 11.0646 18.5694 10.9901C18.6346 10.9156 18.6844 10.829 18.716 10.7352C18.7476 10.6414 18.7603 10.5423 18.7534 10.4435C18.7464 10.3448 18.7201 10.2484 18.6757 10.1599C18.6314 10.0714 18.5699 9.99258 18.495 9.92794C18.42 9.8633 18.333 9.81413 18.239 9.78328C18.1449 9.75243 18.0457 9.7405 17.947 9.74818C17.8483 9.75586 17.7521 9.78299 17.664 9.82802L15.75 10.785L13.836 9.82802C13.6582 9.73891 13.4522 9.7241 13.2635 9.78683C13.0747 9.84956 12.9186 9.9847 12.8295 10.1625M2.25 11.25C2.05109 11.25 1.86032 11.329 1.71967 11.4697C1.57902 11.6103 1.5 11.8011 1.5 12C1.5 12.1989 1.57902 12.3897 1.71967 12.5304C1.86032 12.671 2.05109 12.75 2.25 12.75H6.75C6.94891 12.75 7.13968 12.671 7.28033 12.5304C7.42098 12.3897 7.5 12.1989 7.5 12C7.5 11.8011 7.42098 11.6103 7.28033 11.4697C7.13968 11.329 6.94891 11.25 6.75 11.25H2.25ZM3 8.25002C3 8.05111 3.07902 7.86034 3.21967 7.71969C3.36032 7.57904 3.55109 7.50002 3.75 7.50002H8.25C8.44891 7.50002 8.63968 7.57904 8.78033 7.71969C8.92098 7.86034 9 8.05111 9 8.25002C9 8.44893 8.92098 8.6397 8.78033 8.78035C8.63968 8.921 8.44891 9.00002 8.25 9.00002H3.75C3.55109 9.00002 3.36032 8.921 3.21967 8.78035C3.07902 8.6397 3 8.44893 3 8.25002ZM3.75 15C3.55109 15 3.36032 15.079 3.21967 15.2197C3.07902 15.3603 3 15.5511 3 15.75C3 15.9489 3.07902 16.1397 3.21967 16.2804C3.36032 16.421 3.55109 16.5 3.75 16.5H8.25C8.44891 16.5 8.63968 16.421 8.78033 16.2804C8.92098 16.1397 9 15.9489 9 15.75C9 15.5511 8.92098 15.3603 8.78033 15.2197C8.63968 15.079 8.44891 15 8.25 15H3.75Z" fill="#368268"/>
</svg>
