<svg width="22" height="22" viewBox="0 0 22 22" fill="none" xmlns="http://www.w3.org/2000/svg">
<path d="M5.99956 1C4.89861 0.999667 3.82833 1.36271 2.9548 2.03281C2.08126 2.7029 1.45331 3.64257 1.16839 4.70602C0.883467 5.76946 0.957503 6.89721 1.37901 7.91428C1.80051 8.93134 2.54592 9.78086 3.49956 10.331V16.843C3.49956 17.661 3.49956 18.069 3.65156 18.437C3.80356 18.804 4.09356 19.093 4.67156 19.672L5.99956 21L8.10756 18.892C8.20456 18.795 8.25356 18.746 8.29356 18.693C8.39951 18.5545 8.46742 18.3908 8.49056 18.218C8.49956 18.152 8.49956 18.083 8.49956 17.946C8.49956 17.835 8.49956 17.779 8.49356 17.725C8.47799 17.5833 8.4323 17.4466 8.35956 17.324C8.32024 17.2617 8.27751 17.2016 8.23156 17.144L6.99956 15.5L7.69956 14.567C8.09556 14.038 8.29456 13.774 8.39656 13.466C8.49956 13.158 8.49956 12.828 8.49956 12.166V10.331C9.4532 9.78086 10.1986 8.93134 10.6201 7.91428C11.0416 6.89721 11.1157 5.76946 10.8307 4.70602C10.5458 3.64257 9.91786 2.7029 9.04433 2.03281C8.17079 1.36271 7.10051 0.999667 5.99956 1Z" stroke="#368268" stroke-width="1.5" stroke-linejoin="round"/>
<path d="M6 6H6.009" stroke="#368268" stroke-width="2" stroke-linecap="round" stroke-linejoin="round"/>
<path d="M12 13H18C18.932 13 19.398 13 19.765 13.152C20.0078 13.2525 20.2284 13.3999 20.4143 13.5857C20.6001 13.7716 20.7475 13.9922 20.848 14.235C21 14.602 21 15.068 21 16C21 16.932 21 17.398 20.848 17.765C20.7475 18.0078 20.6001 18.2284 20.4143 18.4143C20.2284 18.6001 20.0078 18.7475 19.765 18.848C19.398 19 18.932 19 18 19H12M14 4H18C18.932 4 19.398 4 19.765 4.152C20.0078 4.25251 20.2284 4.3999 20.4143 4.58572C20.6001 4.77155 20.7475 4.99218 20.848 5.235C21 5.602 21 6.068 21 7C21 7.932 21 8.398 20.848 8.765C20.7475 9.00782 20.6001 9.22845 20.4143 9.41428C20.2284 9.6001 20.0078 9.74749 19.765 9.848C19.398 10 18.932 10 18 10H14" stroke="#368268" stroke-width="1.5" stroke-linecap="round"/>
</svg>
