<svg width="24" height="24" viewBox="0 0 24 24" fill="none" xmlns="http://www.w3.org/2000/svg">
<g clip-path="url(#clip0_135_7611)">
<path fill-rule="evenodd" clip-rule="evenodd" d="M0.327 3.13495C0 3.77695 0 4.61695 0 6.29995V17.6999C0 19.3799 0 20.2199 0.327 20.865C0.615 21.4289 1.074 21.888 1.638 22.176C2.28 22.503 3.12 22.5029 4.803 22.5029H19.203C20.883 22.5029 21.723 22.503 22.368 22.176C22.932 21.888 23.391 21.4289 23.679 20.865C24.006 20.2229 24.006 19.3829 24.006 17.6999V6.29995C24.006 4.61995 24.006 3.77995 23.679 3.13495C23.3914 2.57049 22.9325 2.11156 22.368 1.82395C21.726 1.49695 20.886 1.49695 19.203 1.49695H4.803C3.123 1.49695 2.283 1.49695 1.638 1.82395C1.07354 2.11156 0.614616 2.57049 0.327 3.13495ZM1.5 17.6999V7.49995H22.5V17.6999C22.5 18.5654 22.5 19.1234 22.464 19.5449C22.431 19.9529 22.374 20.1029 22.3365 20.1779C22.1927 20.4602 21.9632 20.6896 21.681 20.8335C21.606 20.8709 21.456 20.9279 21.048 20.9609C20.6235 20.9954 20.064 20.997 19.203 20.997H4.803C3.9375 20.997 3.3795 20.997 2.958 20.9609C2.55 20.9279 2.4 20.8709 2.325 20.8335C2.04277 20.6896 1.81331 20.4602 1.6695 20.1779C1.632 20.1029 1.575 19.9529 1.542 19.5449C1.50774 18.9306 1.49574 18.3152 1.506 17.6999H1.5ZM3 5.99995C3.39782 5.99995 3.77936 5.84191 4.06066 5.56061C4.34196 5.2793 4.5 4.89777 4.5 4.49995C4.5 4.10212 4.34196 3.72059 4.06066 3.43929C3.77936 3.15798 3.39782 2.99995 3 2.99995C2.60218 2.99995 2.22064 3.15798 1.93934 3.43929C1.65804 3.72059 1.5 4.10212 1.5 4.49995C1.5 4.89777 1.65804 5.2793 1.93934 5.56061C2.22064 5.84191 2.60218 5.99995 3 5.99995ZM9 4.49995C9 4.89777 8.84196 5.2793 8.56066 5.56061C8.27936 5.84191 7.89782 5.99995 7.5 5.99995C7.10218 5.99995 6.72064 5.84191 6.43934 5.56061C6.15804 5.2793 6 4.89777 6 4.49995C6 4.10212 6.15804 3.72059 6.43934 3.43929C6.72064 3.15798 7.10218 2.99995 7.5 2.99995C7.89782 2.99995 8.27936 3.15798 8.56066 3.43929C8.84196 3.72059 9 4.10212 9 4.49995ZM12 5.99995C12.3978 5.99995 12.7794 5.84191 13.0607 5.56061C13.342 5.2793 13.5 4.89777 13.5 4.49995C13.5 4.10212 13.342 3.72059 13.0607 3.43929C12.7794 3.15798 12.3978 2.99995 12 2.99995C11.6022 2.99995 11.2206 3.15798 10.9393 3.43929C10.658 3.72059 10.5 4.10212 10.5 4.49995C10.5 4.89777 10.658 5.2793 10.9393 5.56061C11.2206 5.84191 11.6022 5.99995 12 5.99995Z" fill="#368268"/>
</g>
<defs>
<clipPath id="clip0_135_7611">
<rect width="24" height="24" fill="white"/>
</clipPath>
</defs>
</svg>
