<svg width="19" height="19" viewBox="0 0 19 19" fill="none" xmlns="http://www.w3.org/2000/svg">
<g clip-path="url(#clip0_135_7651)">
<path d="M18.4111 13.7423C18.4111 14.2727 18.2004 14.7815 17.8253 15.1565C17.4503 15.5316 16.9416 15.7423 16.4111 15.7423H2.41113C1.8807 15.7423 1.37199 15.5316 0.996919 15.1565C0.621847 14.7815 0.411133 14.2727 0.411133 13.7423V4.74231C0.411133 4.21188 0.621847 3.70317 0.996919 3.3281C1.37199 2.95302 1.8807 2.74231 2.41113 2.74231H16.4111C16.9416 2.74231 17.4503 2.95302 17.8253 3.3281C18.2004 3.70317 18.4111 4.21188 18.4111 4.74231V13.7423Z" fill="#141414"/>
<path d="M0.411133 6.74231H18.4111V11.7423H0.411133V6.74231Z" fill="#EEEEEE"/>
<path d="M16.4111 2.74231H2.41113C1.8807 2.74231 1.37199 2.95302 0.996919 3.3281C0.621847 3.70317 0.411133 4.21188 0.411133 4.74231L0.411133 6.74231H18.4111V4.74231C18.4111 4.21188 18.2004 3.70317 17.8253 3.3281C17.4503 2.95302 16.9416 2.74231 16.4111 2.74231Z" fill="#CE1225"/>
<path d="M7.78613 11.0233C7.78613 11.0233 7.79413 11.1483 7.90313 11.2108C7.90313 11.2108 7.87213 11.3048 7.98913 11.3593C8.10613 11.4138 8.52813 11.4998 9.26263 11.4998C9.99713 11.4998 10.4111 11.4218 10.5206 11.3668C10.6301 11.3123 10.6376 11.1873 10.6376 11.1873C10.6376 11.1873 10.7546 11.1248 10.7471 11.0468C10.7396 10.9688 10.5831 10.8828 10.5831 10.8828C10.5831 10.8828 10.5441 10.7813 10.4346 10.7423C10.3251 10.7033 9.97363 10.9143 9.30163 10.8828C8.62963 10.8513 8.24713 10.7498 8.12213 10.7578C7.99713 10.7658 7.94263 10.8908 7.94263 10.8908C7.94263 10.8908 7.80163 10.9533 7.78613 11.0233Z" fill="#BF9300"/>
<path d="M7.87237 11.0158C7.86587 11.0623 7.96637 11.1643 7.96637 11.1643C7.96637 11.1643 7.96637 11.2813 8.06787 11.3128C8.16937 11.3443 8.58337 11.4223 9.25537 11.4143C9.92737 11.4063 10.4039 11.3673 10.4584 11.3203C10.5129 11.2733 10.5599 11.1718 10.5599 11.1718C10.5599 11.1718 10.6694 11.0938 10.6614 11.0313C10.6534 10.9688 10.4974 10.9298 10.4974 10.9298C10.4974 10.9298 10.4534 10.8358 10.4014 10.7968C10.3494 10.7578 10.0134 10.9528 9.29437 10.9528C8.59087 10.9528 8.18487 10.7808 8.11487 10.7888C8.04487 10.7968 7.99787 10.9293 7.99787 10.9293C7.99787 10.9293 7.88037 10.9613 7.87237 11.0158Z" fill="#EEEEEE"/>
<path d="M10.8403 7.9843C10.8403 7.9843 10.8248 7.6173 10.4888 7.6638C10.1528 7.7108 10.1293 7.8748 9.76978 7.9138L9.69578 7.9208C9.63588 7.75822 9.60278 7.58699 9.59778 7.4138C9.59778 7.1793 9.66828 7.0778 9.42578 6.9608C9.18378 6.8438 9.13678 6.9528 9.13678 6.9528C9.13678 6.9528 8.94928 6.8588 8.86328 6.9293C8.77728 6.9998 8.82428 7.1793 8.86328 7.1248C8.90228 7.0703 9.05878 7.2263 9.05878 7.2263C9.11178 7.4858 8.96128 7.7668 8.85828 7.9233C8.82278 7.9198 8.79428 7.9183 8.75428 7.9138C8.39478 7.8748 8.37128 7.7108 8.03528 7.6638C7.69928 7.6168 7.68378 7.9843 7.68378 7.9843L7.55078 10.8203L7.82428 10.6093L7.82578 10.5758L8.39478 10.0703L8.48978 9.9753L8.25428 10.6638C8.25428 10.6638 7.89478 10.6403 7.99628 10.9293C7.99628 10.9293 8.05078 10.7653 8.14478 10.7963C8.23878 10.8273 8.51178 10.8978 8.51178 10.8978L8.60578 11.0463L8.72278 10.9368L9.08978 10.9213C9.08978 10.9213 9.20678 10.9523 9.19928 11.0543C9.22064 11.0104 9.22713 10.9607 9.21778 10.9128L9.32828 10.9053C9.31662 10.9556 9.32263 11.0084 9.34528 11.0548C9.33728 10.9533 9.45478 10.9218 9.45478 10.9218L9.82178 10.9373L9.93928 11.0468L10.0333 10.8983C10.0333 10.8983 10.3063 10.8278 10.3998 10.7968C10.4933 10.7658 10.5483 10.9298 10.5483 10.9298C10.6498 10.6408 10.2903 10.6643 10.2903 10.6643L10.0658 10.0078L10.1288 10.0708L10.6978 10.5763L10.6993 10.6098L10.9728 10.8208L10.8403 7.9843ZM9.28678 9.7033C8.72328 9.3553 8.67678 8.4768 8.67678 8.4768C8.67678 8.4768 9.02528 8.45879 9.27828 8.28129C9.50628 8.48379 9.89528 8.4608 9.89528 8.4608C9.89528 8.4608 9.86878 9.3428 9.28678 9.7033ZM10.5748 7.8753L10.0983 8.3283L10.0183 8.3603C9.93628 8.3633 9.53728 8.3643 9.28578 8.1408C8.97328 8.3598 8.54378 8.3753 8.54378 8.3753L8.47728 8.3488L7.94978 7.8753L7.81128 7.9323C7.81728 7.8758 7.84828 7.7488 8.02028 7.7738C8.30228 7.8143 8.41878 7.9693 8.71578 8.0003L8.79978 8.0088L8.77028 8.0468C8.81628 8.0468 8.88428 8.0333 8.93428 8.0223L8.99078 8.0278L8.96528 8.1168C9.00528 8.1048 9.06328 8.0703 9.11078 8.0398L9.24078 8.0523L9.27028 8.0933L9.36928 8.0438L9.43578 8.0373C9.49328 8.0708 9.57528 8.1008 9.57528 8.1008L9.59078 8.0228C9.66128 8.0698 9.77828 8.0698 9.77828 8.0698C9.76478 8.0588 9.75128 8.0308 9.73728 8.0068L9.80928 7.9993C10.1063 7.9683 10.2223 7.8133 10.5048 7.7728C10.6768 7.7483 10.7078 7.8748 10.7138 7.9313L10.5748 7.8753Z" fill="#BF9300"/>
<path d="M9.09863 9.68781L8.81713 10.7578L8.34863 10.6643L8.83313 9.28931L9.09863 9.68781ZM9.44813 9.68781L9.72913 10.7578L10.1981 10.6643L9.71363 9.28931L9.44813 9.68781Z" fill="#EEEEEE"/>
<path d="M8.79395 8.5628C8.79395 8.5628 8.83294 9.0158 9.03594 9.3673V8.4613C9.03594 8.4613 8.90295 8.5393 8.79395 8.5628ZM9.77044 8.5783C9.77044 8.5783 9.73145 9.0313 9.52845 9.3828V8.4768C9.52795 8.4768 9.66094 8.5548 9.77044 8.5783Z" fill="#BF9300"/>
<path d="M8.8877 7.03133C8.8877 7.03133 8.9422 6.97683 9.0987 7.08583C9.2002 7.15683 9.2902 7.21083 9.2902 7.21083C9.2902 7.21083 9.3542 7.14333 9.4482 7.15883C9.5422 7.17433 9.4897 7.30482 9.5052 7.57782C9.5207 7.85132 9.6302 7.96832 9.6302 7.96832L9.4972 7.89032L9.5052 7.97633L9.3567 7.90582L9.2862 8.00732L9.2157 7.89783L9.1017 7.96733L9.0672 7.87433L8.9342 7.94482C8.9342 7.94482 9.1297 7.70283 9.1452 7.43683C9.1497 7.35733 9.1297 7.17883 9.1297 7.17883C9.1297 7.17883 9.0052 7.02333 8.8877 7.03133Z" fill="#EEEEEE"/>
<path d="M8.18466 11.0703C8.09516 11.1238 8.13016 11.1563 8.18466 11.1798C8.23916 11.2033 8.56716 11.2428 9.23166 11.2578C9.91116 11.2733 10.3332 11.1953 10.3877 11.1638C10.4422 11.1328 10.4502 11.0778 10.3567 11.0623C10.2627 11.0468 9.79416 11.1248 9.22366 11.1248C8.52066 11.1253 8.22366 11.0468 8.18466 11.0703Z" fill="#BF9300"/>
</g>
<defs>
<clipPath id="clip0_135_7651">
<rect width="18" height="18" fill="white" transform="translate(0.411133 0.24231)"/>
</clipPath>
</defs>
</svg>
