<svg width="19" height="19" viewBox="0 0 19 19" fill="none" xmlns="http://www.w3.org/2000/svg">
<g clip-path="url(#clip0_135_7683)">
<path d="M0.411133 6.74255H18.4111V11.7426H0.411133V6.74255Z" fill="#EEEEEE"/>
<path d="M16.4111 2.74255H2.41113C1.8807 2.74255 1.37199 2.95327 0.996919 3.32834C0.621847 3.70341 0.411133 4.21212 0.411133 4.74255L0.411133 6.74255H18.4111V4.74255C18.4111 4.21212 18.2004 3.70341 17.8253 3.32834C17.4503 2.95327 16.9416 2.74255 16.4111 2.74255Z" fill="#E05206"/>
<path d="M9.41113 11.2426C10.5157 11.2426 11.4111 10.3471 11.4111 9.24255C11.4111 8.13798 10.5157 7.24255 9.41113 7.24255C8.30656 7.24255 7.41113 8.13798 7.41113 9.24255C7.41113 10.3471 8.30656 11.2426 9.41113 11.2426Z" fill="#E05206"/>
<path d="M16.4111 15.7426H2.41113C1.8807 15.7426 1.37199 15.5318 0.996919 15.1568C0.621847 14.7817 0.411133 14.273 0.411133 13.7426V11.7426H18.4111V13.7426C18.4111 14.273 18.2004 14.7817 17.8253 15.1568C17.4503 15.5318 16.9416 15.7426 16.4111 15.7426Z" fill="#0DB02B"/>
</g>
<defs>
<clipPath id="clip0_135_7683">
<rect width="18" height="18" fill="white" transform="translate(0.411133 0.242554)"/>
</clipPath>
</defs>
</svg>
