<svg width="20" height="20" viewBox="0 0 20 20" fill="none" xmlns="http://www.w3.org/2000/svg">
<path d="M16.72 12.7599C17.07 11.9099 17.26 10.9999 17.26 9.99995C17.26 9.27995 17.15 8.58995 16.96 7.94995C16.31 8.09995 15.63 8.17995 14.92 8.17995C13.466 8.18151 12.0329 7.83347 10.7415 7.16517C9.45018 6.49687 8.33843 5.5279 7.5 4.33995C6.60396 6.51069 4.91172 8.25659 2.77 9.21995C2.73 9.46995 2.73 9.73995 2.73 9.99995C2.73 10.9547 2.91804 11.9 3.2834 12.7821C3.64875 13.6641 4.18425 14.4655 4.85933 15.1406C6.22272 16.504 8.07188 17.2699 10 17.2699C11.05 17.2699 12.06 17.0399 12.97 16.6299C13.54 17.7199 13.8 18.2599 13.78 18.2599C12.14 18.8099 10.87 19.0799 10 19.0799C7.58 19.0799 5.27 18.1299 3.57 16.4199C2.53505 15.3899 1.76627 14.1234 1.33 12.7299H0V8.17995H1.09C1.42024 6.57246 2.17949 5.08436 3.28719 3.87354C4.39489 2.66272 5.80971 1.77435 7.38153 1.3027C8.95335 0.831056 10.6235 0.793718 12.2149 1.19465C13.8062 1.59559 15.2593 2.41984 16.42 3.57995C17.6798 4.83553 18.5393 6.43623 18.89 8.17995H20V12.7299H19.94L16.38 15.9999L11.08 15.3999V13.7299H15.91L16.72 12.7599ZM7.27 9.76995C7.57 9.76995 7.86 9.88995 8.07 10.1099C8.28105 10.3227 8.39947 10.6103 8.39947 10.9099C8.39947 11.2096 8.28105 11.4972 8.07 11.7099C7.86 11.9199 7.57 12.0399 7.27 12.0399C6.64 12.0399 6.13 11.5399 6.13 10.9099C6.13 10.2799 6.64 9.76995 7.27 9.76995ZM12.72 9.76995C13.35 9.76995 13.85 10.2799 13.85 10.9099C13.85 11.5399 13.35 12.0399 12.72 12.0399C12.09 12.0399 11.58 11.5399 11.58 10.9099C11.58 10.6076 11.7001 10.3176 11.9139 10.1038C12.1277 9.89005 12.4177 9.76995 12.72 9.76995Z" fill="#368268"/>
</svg>
